<svg xmlns="http://www.w3.org/2000/svg" xmlns:xlink="http://www.w3.org/1999/xlink" width="60" height="60" viewBox="0 0 60 60">
    <defs>
        <linearGradient id="ndjq63wtxa" x1="40.177%" x2="56.438%" y1="89.647%" y2="13.469%">
            <stop offset="0%" stop-color="#3948BA"/>
            <stop offset="47.646%" stop-color="#4152D4"/>
            <stop offset="100%" stop-color="#495CEF"/>
        </linearGradient>
        <path id="r8sv0k5rdb" d="M16.828 35.743l2.03-7.406 2.013 7.406h2.865l2.963-11.486H23.85l-1.604 8.048-2.226-8.048h-2.308l-2.178 7.904-1.637-7.904H11l2.963 11.486h2.865zm16.62.257c.907 0 1.76-.187 2.563-.562.802-.375 1.47-.9 2.005-1.575L36.28 32.08c-.328.482-.734.86-1.22 1.133-.485.273-1.001.41-1.547.41-.633 0-1.187-.153-1.661-.458-.475-.306-.846-.731-1.113-1.277-.268-.547-.402-1.178-.402-1.896s.134-1.347.402-1.888c.267-.54.64-.963 1.12-1.269.481-.305 1.032-.457 1.654-.457.546 0 1.062.136 1.547.41.486.272.892.65 1.22 1.132l1.735-1.783c-.535-.686-1.192-1.213-1.973-1.583-.78-.37-1.623-.554-2.529-.554-1.178 0-2.223.254-3.135.763-.91.509-1.623 1.213-2.136 2.113-.513.9-.77 1.938-.77 3.116 0 1.178.254 2.22.762 3.124.507.905 1.211 1.612 2.112 2.12.9.51 1.934.764 3.102.764zm10.772 0c.971 0 1.814-.15 2.53-.45.714-.3 1.268-.725 1.66-1.277.394-.551.59-1.191.59-1.92 0-1.97-1.446-3.186-4.338-3.646-.862-.15-1.462-.319-1.8-.506-.339-.188-.508-.453-.508-.795 0-.365.166-.646.5-.844.332-.198.766-.297 1.3-.297.634 0 1.223.134 1.768.402.546.267 1.004.637 1.376 1.108L49 26.025c-.535-.622-1.23-1.115-2.087-1.479-.857-.364-1.782-.546-2.775-.546-.884 0-1.667.15-2.349.45-.682.3-1.214.725-1.596 1.277-.382.551-.573 1.207-.573 1.968 0 1.863 1.435 3.01 4.305 3.438.83.128 1.425.3 1.785.514.36.214.54.508.54.883 0 .364-.175.653-.524.868-.35.214-.83.32-1.44.32-.448 0-.893-.066-1.335-.2-.442-.134-.845-.324-1.211-.57-.366-.247-.658-.525-.876-.836l-1.751 1.751c.578.686 1.312 1.213 2.201 1.583.89.37 1.858.554 2.906.554z"/>
    </defs>
    <g fill="none" fill-rule="evenodd">
        <g fill-rule="nonzero">
            <g>
                <path fill="url(#ndjq63wtxa)" d="M0 0H60V60H0z" transform="translate(-278 -257) translate(278 257)"/>
                <g transform="translate(-278 -257) translate(278 257)">
                    <use fill="#000" xlink:href="#r8sv0k5rdb"/>
                    <use fill="#FFF" xlink:href="#r8sv0k5rdb"/>
                </g>
            </g>
        </g>
    </g>
</svg>
