<svg viewBox="0 0 250 250" height="250" width="250" xmlns="http://www.w3.org/2000/svg">
    <g>
        <path d="M124.115 113.433s-.102-.001-.293.017c-.158.016-.377.031-.649.054.287-.007.517-.043.677-.046.173-.003.265-.025.265-.025M91.799 48.457c.641 2.179 1.73 4.192 3.061 5.973a24.382 24.382 0 0 0 2.158 2.523c.378.405.784.77 1.182 1.152.415.355.823.728 1.253 1.062a36.132 36.132 0 0 0 5.414 3.597 47.73 47.73 0 0 0 5.85 2.63c1.988.753 4.021 1.334 6.048 1.838.502.13 1.023.245 1.546.359l.78.172.727.142 1.433.27c.433.074.855.171 1.276.266 3.351.799 6.391 2.208 8.498 4.281a10.593 10.593 0 0 1 2.432 3.47 9.882 9.882 0 0 1 .844 3.977c.029 1.357-.237 2.708-.7 3.964a11.54 11.54 0 0 1-.826 1.82c-.322.579-.68 1.134-1.08 1.648-1.568 2.092-3.617 3.63-5.611 4.701-2 1.088-3.959 1.721-5.605 2.148-1.652.401-3.006.63-3.926.735l-1.431.163.362.068c.24.04.591.125 1.059.182.939.133 2.324.305 4.121.284 1.792-.033 4.008-.247 6.485-1.02a20.925 20.925 0 0 0 3.831-1.647 20.059 20.059 0 0 0 2.628-1.801 25.143 25.143 0 0 1-3.116-.098c-.451-.035-.792-.097-1.024-.122l-.351-.046s.482-.023 1.38-.089c.891-.063 2.202-.224 3.815-.571.149-.032.304-.069.457-.106l.011-.01a16.993 16.993 0 0 0 1.712-1.95 16.018 16.018 0 0 0 1.469-2.313c.856-1.667 1.488-3.571 1.701-5.627a15.514 15.514 0 0 0-.695-6.334c-.696-2.093-1.865-4.074-3.366-5.75-1.502-1.679-3.317-3.059-5.257-4.14-.483-.281-.98-.52-1.477-.769-.504-.221-1.01-.455-1.524-.646a29.55 29.55 0 0 0-3.124-1.028 30.798 30.798 0 0 0-1.587-.387l-.735-.162-.721-.152-.722-.148-.662-.155a34.55 34.55 0 0 1-1.338-.326c-1.81-.456-3.584-1.025-5.323-1.645a41.14 41.14 0 0 1-5.017-2.191 30.005 30.005 0 0 1-4.496-2.79c-1.373-1.043-2.622-2.174-3.646-3.413-.524-.613-.961-1.264-1.364-1.916a11.488 11.488 0 0 1-.995-2.007 10.166 10.166 0 0 1-.687-4.133 9.075 9.075 0 0 1 .326-2.035c.182-.665.415-1.325.727-1.955.59-1.276 1.466-2.426 2.404-3.494.952-1.063 2.044-1.979 3.146-2.819 2.224-1.663 4.571-2.894 6.712-3.873a58.88 58.88 0 0 1 5.751-2.241c.408-.146.8-.26 1.168-.378.368-.119.711-.239 1.035-.332.648-.191 1.199-.368 1.65-.487l1.384-.395-1.442.007c-.939.031-2.324.06-4.083.243-1.76.173-3.898.481-6.325 1.085-1.22.283-2.497.69-3.839 1.165a29.87 29.87 0 0 0-4.136 1.849 23.978 23.978 0 0 0-4.198 2.848c-.677.589-1.359 1.211-1.978 1.935-.325.345-.612.738-.919 1.115-.282.402-.583.795-.841 1.229a14.563 14.563 0 0 0-1.384 2.773 14.6 14.6 0 0 0-.815 3.145 15.393 15.393 0 0 0-.113 3.35c.091 1.131.32 2.247.643 3.332m56.527 83.259c-2.44.491-4.926.872-7.439 1.186-5.025.638-10.164.889-15.297.903-5.132-.016-10.272-.27-15.296-.91-2.512-.315-4.999-.691-7.438-1.188-2.437-.507-4.831-1.108-7.146-1.877a31.364 31.364 0 0 1-3.199-1.244l.025.033c.315.344.664.674 1.074.948.802.567 1.719 1.017 2.667 1.41.952.39 1.938.734 2.953 1.024 2.026.59 4.137 1.038 6.288 1.403 2.152.362 4.344.658 6.563.878 4.441.43 8.969.658 13.513.639a134.33 134.33 0 0 0 13.504-.642 95.793 95.793 0 0 0 6.563-.88c2.151-.364 4.261-.812 6.287-1.402a28.69 28.69 0 0 0 2.953-1.023c.948-.394 1.864-.844 2.666-1.41a5.913 5.913 0 0 0 1.074-.947l.01-.014a31.066 31.066 0 0 1-3.18 1.234c-2.314.77-4.708 1.371-7.145 1.879m-47.718-91.917-.026.073a7.165 7.165 0 0 0-.352 1.481 6.13 6.13 0 0 0-.038 1.395c.042.471.129.932.267 1.393a56.589 56.589 0 0 1 5.095-2.199 8.153 8.153 0 0 1-.395-.877 6.597 6.597 0 0 1-.415-1.833 5.977 5.977 0 0 1 .029-1.119 60.607 60.607 0 0 0-4.165 1.686M125.5 34.49c-5.447 0-10.725.719-15.748 2.062a6.753 6.753 0 0 0-.223.269c-.377.489-.607.982-.668 1.402-.06.42-.003.801.211 1.28.148.331.389.69.687 1.049a56.858 56.858 0 0 1 15.742-2.212c31.436 0 57.011 25.575 57.011 57.011 0 31.436-25.575 57.011-57.011 57.011-31.436 0-57.011-25.574-57.011-57.011 0-17.6 8.018-33.362 20.592-43.828a20.764 20.764 0 0 1-.642-1.949 20.876 20.876 0 0 1-.46-2.143C73.77 58.571 64.64 75.894 64.64 95.35c0 33.612 27.248 60.86 60.86 60.86 33.612 0 60.86-27.247 60.86-60.86 0-33.612-27.248-60.86-60.86-60.86m-5.126 59.138c.778-.346 1.626-.692 2.487-1.167.86-.471 1.748-1 2.61-1.631.082-.06.163-.124.246-.186l-.126-.001c-12.014 0-21.752 2.419-21.752 5.404s9.738 5.404 21.752 5.404c12.013 0 21.752-2.419 21.752-5.404 0-1.933-4.088-3.628-10.229-4.583-.185.173-.37.341-.557.504-1.445 1.26-2.979 2.193-4.466 2.907a20.837 20.837 0 0 1-4.329 1.463c-2.748.601-5.118.557-6.991.37a23.195 23.195 0 0 1-2.466-.403c-.352-.083-.674-.153-.969-.229l-.799-.233c-.472-.133-.815-.279-1.056-.359l-.359-.134 1.437-.406a41.145 41.145 0 0 0 3.815-1.316M70.589 95.35c0 30.278 24.633 54.911 54.912 54.911 30.278 0 54.912-24.633 54.912-54.911 0-30.278-24.634-54.912-54.912-54.912-4.812 0-9.481.624-13.931 1.793.108.083.214.165.325.247 1.292.95 2.795 1.792 4.362 2.585 1.57.796 3.228 1.523 4.928 2.208 1.696.697 3.439 1.349 5.208 1.965a176.23 176.23 0 0 0 5.36 1.791c.911.293 1.771.538 2.751.863l.73.24.723.266c.484.17.957.375 1.433.569a28.807 28.807 0 0 1 5.406 2.989c1.677 1.203 3.235 2.579 4.548 4.153a21.47 21.47 0 0 1 3.215 5.135 19.936 19.936 0 0 1 1.532 5.66c.216 1.908.131 3.8-.204 5.584-.668 3.578-2.368 6.682-4.486 8.944a17.822 17.822 0 0 1-3.374 2.839 18.298 18.298 0 0 1-4.19 2.037c6.32 1.554 10.837 4.301 10.837 8.184 0 .583-.025 1.079-.068 1.779h8.835v.7h-8.894c-.023 0-.048.35-.076.7h9.278c.299 4.549-3.559 11.845-12.652 13.329 1.244.189 2.524.391 3.842.645 1.881.371 3.83.822 5.812 1.467.993.315 1.994.675 2.986 1.133.989.459 1.983.989 2.892 1.758.235.178.437.419.654.634.101.12.195.25.292.377.046.065.098.126.141.195l.12.219c.175.282.282.619.374.958.025.177.048.356.066.535a.775.775 0 0 1 .001.134l-.004.052-.007.105-.016.21-.007.105-.033.143-.075.289c-.028.094-.053.198-.088.281l-.111.234c-.138.326-.338.588-.528.866a7.85 7.85 0 0 1-1.373 1.322c-.702.539-1.45.985-2.218 1.383-.015.051-.029.104-.048.15l-.094.192c-.113.266-.286.483-.446.714-.357.418-.75.803-1.186 1.114-.862.645-1.812 1.142-2.787 1.581-.979.434-1.986.817-3.016 1.143-2.059.664-4.193 1.18-6.366 1.612a90.947 90.947 0 0 1-6.635 1.011c-4.485.534-9.063.741-13.651.762-4.571-.023-9.162-.227-13.643-.765-4.481-.525-8.877-1.305-13-2.625a29.52 29.52 0 0 1-3.016-1.143c-.975-.439-1.925-.936-2.786-1.581a6.668 6.668 0 0 1-1.186-1.113 3.711 3.711 0 0 1-.585-1.06 14.656 14.656 0 0 1-2.218-1.382 7.838 7.838 0 0 1-1.372-1.321c-.397-.525-.733-1.157-.836-1.874l-.023-.27-.009-.135-.003-.067a.956.956 0 0 1 .007-.126l.053-.415c.035-.165.101-.367.159-.545.056-.197.147-.315.223-.47l.12-.219c.043-.07.094-.13.141-.195.096-.127.19-.257.29-.377.217-.215.419-.456.653-.633.909-.769 1.902-1.301 2.891-1.76a25.757 25.757 0 0 1 2.984-1.138c1.982-.645 3.931-1.103 5.812-1.474a98.527 98.527 0 0 1 5.204-.86l.333.11.452.148c-1.867.303-3.827.68-5.859 1.187-1.844.454-3.749.998-5.651 1.716-.951.359-1.899.767-2.811 1.252-.91.483-1.803 1.04-2.529 1.729-.196.163-.331.361-.499.538-.07.096-.13.195-.196.291-.031.049-.069.096-.096.145l-.069.151c-.038.097-.114.209-.119.286-.018.089-.05.15-.073.255l-.029.398s0-.004.001-.001l.007.037.012.074.021.148c.083.392.303.779.608 1.143.334.35.704.693 1.151.981.87.595 1.879 1.074 2.925 1.491a33.57 33.57 0 0 0 3.269 1.088c2.245.631 4.59 1.107 6.98 1.488 2.391.382 4.828.697 7.296.923a165.6 165.6 0 0 0 15.02.657c5.044.009 10.084-.221 15.02-.664a107.16 107.16 0 0 0 7.296-.925c2.39-.381 4.734-.856 6.979-1.487a33.355 33.355 0 0 0 3.267-1.089c1.046-.416 2.055-.895 2.924-1.489.447-.288.817-.63 1.151-.98.136-.186.299-.364.386-.559l.082-.142c.023-.045.027-.08.044-.12.014-.038.03-.076.048-.115l.028-.058.014-.105.043-.335a4.21 4.21 0 0 1-.018-.299c-.05-.198-.089-.402-.2-.599l-.069-.15c-.026-.05-.064-.096-.095-.145-.066-.096-.126-.194-.196-.29-.167-.178-.303-.375-.498-.538-.725-.689-1.618-1.246-2.527-1.728a24.363 24.363 0 0 0-2.81-1.253c-1.901-.719-3.806-1.263-5.65-1.717a69.83 69.83 0 0 0-5.145-1.07l-.134.013c.117-.22.227-.456.35-.704l.47-.977c.17-.336.321-.694.472-1.057l.466-1.1c.16-.366.288-.745.433-1.112.138-.368.28-.729.406-1.081.239-.71.483-1.365.655-1.939.184-.569.329-1.047.424-1.382l.149-.527-.178.518c-.113.33-.284.798-.499 1.356-.203.562-.481 1.202-.758 1.894-.144.344-.305.694-.463 1.053-.163.356-.311.726-.491 1.08l-.521 1.065c-.17.352-.338.697-.524 1.02l-.517.939c-.168.296-.31.585-.476.83l-.106.168c-.092.004-.181.013-.275.016-1.886 2.246-4.134 4.278-6.659 5.899-8.546 2.788-16.047 2.575-24.593-.213a31.68 31.68 0 0 1-2.319-1.64c.266.047.53.104.8.143l.828.109c.553.069 1.101.155 1.645.207l1.599.128c.259.018.512.046.763.056l.734.02 1.339.036c.414.022.791-.014 1.126-.017l.868-.027.756-.024-.754-.066-.864-.077c-.333-.036-.713-.046-1.119-.117l-1.311-.193-.713-.105c-.243-.039-.49-.096-.741-.145l-1.546-.313c-.524-.113-1.05-.263-1.577-.393l-.788-.201c-.261-.07-.516-.158-.772-.235l-1.492-.469-1.283-.486a28.008 28.008 0 0 1-1.821-1.942c.175.049.354.094.535.143.572.152 1.171.303 1.789.452.627.127 1.274.251 1.927.369.308.053.615.114.926.159.312.042.625.083.938.123.628.077 1.251.163 1.866.217a169.38 169.38 0 0 0 1.816.126c.294.016.582.039.865.047l.832.012c.32.003.628.006.924.007l.592.001c.469.008.896-.032 1.275-.046.309-.016.586-.032.826-.047l.156-.01.594-.039.262-.017-.225-.006-.655-.02-.034-.001c-.293-.01-.648-.024-1.056-.043-.362-.022-.767-.029-1.202-.072l-.158-.017a85.044 85.044 0 0 1-2.467-.284c-.202-.027-.406-.063-.613-.099l-.29-.05a89 89 0 0 1-1.887-.348c-.488-.1-.978-.221-1.467-.342l-.455-.113a95.64 95.64 0 0 1-.957-.247c-.316-.085-.626-.187-.935-.282a84.45 84.45 0 0 1-1.808-.591 65.95 65.95 0 0 1-1.64-.655c-.258-.11-.51-.208-.743-.323a30.892 30.892 0 0 1-1.066-.552c-.235-.13-.441-.251-.627-.363-.23-.36-.45-.728-.662-1.101a62.167 62.167 0 0 0 1.88.635c.251.08.51.145.772.218.673.187 1.378.368 2.102.54.739.157 1.499.305 2.265.439.345.059.69.123 1.038.172.348.048.698.094 1.046.137.703.085 1.401.171 2.088.226a85.163 85.163 0 0 0 2.034.124c.329.014.651.032.967.037.318.004.628.005.93.004.357 0 .701-.002 1.032-.007.228-.004.448-.007.662-.012.524-.006 1.001-.049 1.424-.075.345-.024.654-.047.92-.069l.175-.013c.004 0 .008.029.012.029-.031.001-.059.032-.091.032h-.041c-.345 0-.765-.072-1.246-.08-.427-.013-.904-.071-1.418-.105-.06-.004-.121-.016-.183-.021a63.616 63.616 0 0 1-2.91-.275c-.238-.028-.48-.065-.725-.102l-.341-.053a64.438 64.438 0 0 1-2.228-.384 40.137 40.137 0 0 1-1.731-.387l-.535-.131a63.749 63.749 0 0 1-1.125-.292c-.371-.102-.737-.218-1.099-.33a57.576 57.576 0 0 1-2.125-.714 45.112 45.112 0 0 1-1.92-.794c-.301-.135-.594-.262-.864-.401a23.047 23.047 0 0 1-1.249-.696 10.64 10.64 0 0 1-.857-.58 3.863 3.863 0 0 1-.138-.124 23.463 23.463 0 0 1-.263-.683c.248.105.506.213.783.325a50.004 50.004 0 0 0 2.088.719c.266.085.539.159.816.239.775.222 1.585.432 2.414.627.852.187 1.725.359 2.604.511.381.065.764.131 1.148.185.386.054.772.104 1.156.15.779.093 1.551.179 2.309.236a66.395 66.395 0 0 0 2.25.123c.364.012.72.025 1.07.027a58.079 58.079 0 0 0 2.166-.026c.252-.007.496-.016.732-.026.579-.02 1.107-.068 1.573-.104.381-.032.721-.064 1.015-.094l.193-.02c.307-.033.554-.06.731-.082l.325-.038-.308.015a41.584 41.584 0 0 1-.928.037 54.11 54.11 0 0 1-1.436.024c-.492-.001-1.041.001-1.634-.024l-.208-.01a58.821 58.821 0 0 1-3.353-.253c-.275-.03-.554-.066-.835-.104l-.393-.053c-.838-.118-1.7-.258-2.569-.42a45.818 45.818 0 0 1-2.61-.579c-.435-.107-.866-.22-1.294-.337a50.559 50.559 0 0 1-3.705-1.214 40.043 40.043 0 0 1-2.201-.932c-.344-.161-.676-.316-.984-.48-.338-.181-.654-.36-.944-.534a10.585 10.585 0 0 1-.783-.507 25.847 25.847 0 0 1-.185-.8c.292.124.595.25.914.377a44.038 44.038 0 0 0 2.2.769 50.779 50.779 0 0 0 3.587.973 55.035 55.035 0 0 0 4.201.779c.423.059.845.114 1.266.164.854.101 1.701.186 2.53.245a54.786 54.786 0 0 0 3.64.138 58.549 58.549 0 0 0 3.173-.087 42.465 42.465 0 0 0 1.722-.133c.417-.04.789-.081 1.11-.118l.212-.026a40.392 40.392 0 0 0 1.155-.152l-.349.026c-.228.019-.564.039-.992.062l-.055.003a48.085 48.085 0 0 1-3.477.057l-.233-.006a53.721 53.721 0 0 1-3.796-.238 37.507 37.507 0 0 1-.946-.106l-.444-.056a55.544 55.544 0 0 1-2.909-.456 50.12 50.12 0 0 1-2.955-.64 48.515 48.515 0 0 1-5.648-1.765 37.105 37.105 0 0 1-2.481-1.072 24.583 24.583 0 0 1-1.104-.559 22.025 22.025 0 0 1-.695-.399 26.084 26.084 0 0 1-.104-.986c1.148.469 2.408.912 3.745 1.31a52.74 52.74 0 0 0 6.319 1.454c2.173.363 4.363.595 6.419.699 2.056.107 3.976.086 5.616.001a50.893 50.893 0 0 0 5.432-.572l-.391.036a50.829 50.829 0 0 1-5.049.208 54.155 54.155 0 0 1-5.555-.335 56.179 56.179 0 0 1-6.269-1.067 51.746 51.746 0 0 1-6.073-1.786 37.566 37.566 0 0 1-4.29-1.857c-.002-.139-.007-.278-.007-.417 0-6.859 14.082-10.083 27.324-9.674.035-.036.072-.07.107-.107.372-.412.747-.824 1.071-1.279.338-.442.644-.907.912-1.391 1.097-1.916 1.595-4.109 1.299-6.019a6.707 6.707 0 0 0-.342-1.374 6.56 6.56 0 0 0-.588-1.248 8.02 8.02 0 0 0-1.897-2.157c-1.588-1.307-3.969-2.348-6.84-2.946-.359-.074-.719-.15-1.095-.206l-1.42-.249-.73-.134-.849-.178-.85-.18-.817-.19c-2.156-.525-4.325-1.151-6.463-1.959-4.278-1.597-8.504-3.794-12.274-6.946-.474-.382-.931-.811-1.389-1.219-.447-.44-.896-.86-1.323-1.33a26.601 26.601 0 0 1-2.432-2.947 24.745 24.745 0 0 1-1.939-3.209C78.12 63.599 70.589 78.61 70.589 95.35m71.306-11.182a19.225 19.225 0 0 1-1.425 3.08c-.265.458-.547.894-.84 1.313.06-.031.12-.059.18-.091a18.068 18.068 0 0 0 2.924-1.969 16.828 16.828 0 0 0 2.652-2.77 15.76 15.76 0 0 0 3.076-7.765 15.96 15.96 0 0 0-1.662-8.967c-1.43-2.862-3.763-5.356-6.615-7.24a26.735 26.735 0 0 0-4.62-2.395c-.412-.157-.819-.327-1.242-.464l-.628-.218-.639-.195-2.747-.822a133.02 133.02 0 0 1-5.547-1.818 106.637 106.637 0 0 1-5.439-2.105c-3.562-1.551-7.045-3.236-10.172-5.703a16.365 16.365 0 0 1-2.223-2.111l-.163-.197a54.487 54.487 0 0 0-5.442 2.325c.141.238.298.477.474.716.333.456.686.926 1.128 1.379.853.918 1.9 1.813 3.096 2.654 2.389 1.686 5.343 3.108 8.503 4.262a58.044 58.044 0 0 0 4.908 1.523l.622.168.594.147.594.149.717.156.72.16.75.175c.588.128 1.179.286 1.767.448 1.18.33 2.351.729 3.514 1.213.579.229 1.158.505 1.73.77.571.295 1.137.582 1.694.915a23.426 23.426 0 0 1 6.103 5.02 19.546 19.546 0 0 1 3.902 7.064c.383 1.286.626 2.596.725 3.89a18.567 18.567 0 0 1-.117 3.799 18.368 18.368 0 0 1-.852 3.504m12.347 23.741a2.04 2.04 0 1 1 0-4.078 2.04 2.04 0 0 1 0 4.078" fill="#323232" />
        <path d="m40.074 172.677-.497 1.578c-2.206.137-3.67.409-4.393.818-.468.273-.858.683-1.171 1.229-.37.701-1.45 4.424-3.241 11.166-.583 2.222-2.072 8.292-4.466 18.212 1.363.448 3.088.643 5.174.584l-.468 1.403c-.624.02-1.871-.059-3.741-.233-1.345-.117-2.914-.176-4.707-.176-2.475 0-4.745.185-6.811.556l.351-1.55c2.144-.331 3.771-.76 4.882-1.286.272-.136.486-.302.643-.497.293-.351.609-1.057.95-2.119.341-1.062 1.506-5.402 3.493-13.022.585-2.202 1.773-7.016 3.566-14.44-1.345-.039-2.991.146-4.94.556l.556-1.608c.818-.214 1.656-.365 2.514-.453s2.797-.17 5.817-.248c2.825-.081 4.988-.237 6.489-.47z" fill="#323232" />
        <path d="m47.733 178.172 4.641-1.78-2.1 8.183h6.053l-.468 2.075h-6.058l-2.55 9.796c-.81 2.941-1.214 4.986-1.214 6.136 0 .525.111.906.336 1.14.224.234.53.351.921.351.604 0 1.529-.36 2.776-1.081a36.36 36.36 0 0 0 4.678-3.245l1.11 1.345c-4.268 3.216-7.123 5.185-8.564 5.905-1.442.721-2.602 1.081-3.479 1.081-.722 0-1.292-.263-1.71-.789-.42-.526-.629-1.384-.629-2.572 0-1.403.37-3.547 1.11-6.432l2.977-11.634h-4.736l.526-2.075h4.741l1.639-6.404z" fill="#323232" />
        <path d="m78.631 182.177 1.929-.409-2.192 7.396c-.877 2.943-1.705 6.334-2.484 10.173-.429 2.086-.643 3.431-.643 4.034 0 .604.243.906.73.906.312 0 .809-.205 1.491-.614a19.209 19.209 0 0 0 3.479-2.689l.936 1.141c-2.222 2.026-3.645 3.255-4.269 3.683-1.247.858-2.437 1.491-3.566 1.9a6.251 6.251 0 0 1-2.163.409c-.507 0-.887-.117-1.14-.351-.254-.234-.38-.575-.38-1.023 0-.292.077-.691.233-1.198l1.17-3.976c-1.677 2.008-3.674 3.732-5.993 5.174-1.423.896-2.729 1.345-3.917 1.345-1.13 0-1.998-.399-2.602-1.198-.818-1.071-1.228-2.475-1.228-4.21 0-2.065.551-4.364 1.651-6.898 1.101-2.533 2.577-4.833 4.429-6.898s3.8-3.586 5.847-4.561c1.578-.74 3.604-1.11 6.08-1.11.623 0 1.257.039 1.9.117l.702-1.143zm-3.625 4.472c-1.052-.214-1.939-.321-2.66-.321-1.754 0-3.284.482-4.589 1.446-1.306.965-2.52 2.7-3.64 5.204-1.121 2.504-1.681 5.003-1.681 7.497 0 1.326.224 2.28.672 2.865s1.033.877 1.754.877c1.345 0 2.787-.726 4.326-2.178 1.54-1.451 2.67-3.542 3.392-6.271l2.426-9.119z" fill="#323232" />
        <path d="m84.769 189.456-1.286-.994c1.946-2.144 3.723-3.669 5.328-4.575 1.606-.906 2.974-1.359 4.103-1.359.623 0 1.1.137 1.431.409.33.273.496.644.496 1.111 0 .565-.632 2.963-1.895 7.191-2.061 6.918-3.09 11.089-3.09 12.511 0 .273.067.502.204.687.137.186.282.278.438.278.624 0 2.222-1.208 4.794-3.625l1.141 1.111c-2.671 2.514-4.619 4.121-5.847 4.823-1.228.701-2.231 1.052-3.011 1.052-.683 0-1.224-.215-1.622-.643-.4-.429-.6-1.023-.6-1.783 0-2.437 1.462-8.39 4.385-17.861a4.18 4.18 0 0 0 .204-1.198c0-.39-.175-.585-.525-.585-.391 0-.833.156-1.33.468-.496.312-1.603 1.306-3.318 2.982zm11.489-19.352c.604 0 1.101.2 1.491.599.39.4.584.911.584 1.535 0 .857-.297 1.612-.892 2.266s-1.262.979-2.002.979c-.585 0-1.072-.205-1.462-.614s-.584-.945-.584-1.607c0-.877.282-1.623.848-2.236.564-.615 1.237-.922 2.017-.922z" fill="#323232" />
        <path d="m105.29 180.423-.497-1.87c1.638-1.442 2.704-2.597 3.201-3.465.497-.866.745-1.69.745-2.47 0-.429-.233-1.081-.701-1.958-.37-.702-.556-1.354-.556-1.959 0-.799.234-1.447.702-1.944.468-.496 1.062-.745 1.783-.745.76 0 1.393.288 1.899.862.507.575.76 1.33.76 2.266 0 1.637-.53 3.347-1.593 5.13s-2.976 3.834-5.743 6.153z" fill="#323232" />
        <path d="M125.373 182.674c1.734 0 3.074.336 4.02 1.009.945.672 1.418 1.446 1.418 2.323 0 .526-.2.984-.6 1.374a1.992 1.992 0 0 1-1.447.585c-.37 0-.691-.083-.964-.248-.273-.166-.663-.58-1.17-1.243-.955-1.267-1.899-1.899-2.835-1.899-.8 0-1.506.307-2.119.92-.614.612-.921 1.377-.921 2.291 0 .799.194 1.572.584 2.321.39.75 1.374 1.961 2.953 3.635 2.163 2.297 3.244 4.478 3.244 6.54 0 2.063-.877 3.868-2.631 5.416-1.754 1.547-4.015 2.32-6.781 2.32-2.319 0-4.044-.473-5.175-1.417-1.13-.945-1.695-2.109-1.695-3.494 0-.682.215-1.246.644-1.695a2.102 2.102 0 0 1 1.578-.672c.546 0 1.014.181 1.403.541s.585.784.585 1.271c0 .194-.014.448-.039.76-.014.254-.02.468-.02.644 0 .643.271 1.188.815 1.637.524.448 1.243.672 2.155.672 1.049 0 1.971-.18 2.768-.54a4.121 4.121 0 0 0 1.864-1.635c.446-.729.67-1.455.67-2.175 0-.701-.21-1.401-.629-2.103-.419-.7-1.358-1.858-2.82-3.474-2.027-2.258-3.04-4.428-3.04-6.511 0-1.907.77-3.577 2.31-5.008 1.539-1.429 3.497-2.145 5.875-2.145z" fill="#323232" />
        <path d="M174.598 184.925h-1.578c.098-1.521.146-2.737.146-3.654 0-2.747-.57-4.662-1.71-5.744-1.141-1.081-2.578-1.622-4.312-1.622-2.32 0-4.727.94-7.221 2.821-2.495 1.881-4.639 4.813-6.431 8.799-1.794 3.985-2.689 8.082-2.689 12.292 0 4.073.833 7.195 2.499 9.368s3.757 3.26 6.271 3.26c3.41 0 6.538-2.047 9.383-6.139.293-.409.595-.614.906-.614.253 0 .468.083.644.249a.763.763 0 0 1 .263.569c0 .526-.647 1.56-1.943 3.099-1.297 1.539-2.929 2.821-4.896 3.844-1.969 1.023-3.907 1.535-5.817 1.535-2.3 0-4.434-.6-6.401-1.798-1.969-1.198-3.498-2.908-4.59-5.13s-1.637-4.862-1.637-7.922c0-4.268 1.115-8.517 3.347-12.745s5.023-7.493 8.375-9.793c3.352-2.299 6.626-3.449 9.822-3.449 1.149 0 2.289.127 3.42.38.487.117 2.494.789 6.021 2.018a37.351 37.351 0 0 0-1.872 10.376z" fill="#323232" />
        <path d="m195.909 182.177 1.929-.409-2.192 7.396c-.877 2.943-1.705 6.334-2.484 10.173-.429 2.086-.643 3.431-.643 4.034 0 .604.243.906.73.906.312 0 .809-.205 1.491-.614a19.209 19.209 0 0 0 3.479-2.689l.936 1.141c-2.222 2.026-3.645 3.255-4.269 3.683-1.247.858-2.437 1.491-3.566 1.9a6.251 6.251 0 0 1-2.163.409c-.507 0-.887-.117-1.14-.351-.254-.234-.38-.575-.38-1.023 0-.292.077-.691.233-1.198l1.17-3.976c-1.677 2.008-3.674 3.732-5.993 5.174-1.423.896-2.729 1.345-3.917 1.345-1.13 0-1.998-.399-2.602-1.198-.818-1.071-1.228-2.475-1.228-4.21 0-2.065.551-4.364 1.651-6.898 1.101-2.533 2.577-4.833 4.429-6.898s3.8-3.586 5.847-4.561c1.578-.74 3.604-1.11 6.08-1.11.623 0 1.257.039 1.9.117l.702-1.143zm-3.625 4.472c-1.052-.214-1.939-.321-2.66-.321-1.754 0-3.284.482-4.589 1.446-1.306.965-2.52 2.7-3.64 5.204-1.121 2.504-1.681 5.003-1.681 7.497 0 1.326.224 2.28.672 2.865s1.033.877 1.754.877c1.345 0 2.787-.726 4.326-2.178 1.54-1.451 2.67-3.542 3.392-6.271l2.426-9.119z" fill="#323232" />
        <path d="M202.105 184.574h6.986c1.149-4.872 2.465-8.497 3.946-10.874 1.48-2.378 3.41-4.254 5.788-5.628 2.377-1.373 4.618-2.061 6.724-2.061 1.188 0 2.085.234 2.688.702.604.467.906 1.022.906 1.666 0 .584-.205 1.071-.614 1.461-.41.391-.947.585-1.61.585-.683 0-1.972-.204-3.864-.614-.938-.194-1.669-.292-2.195-.292-1.289 0-2.45.794-3.484 2.383-1.034 1.588-1.864 3.736-2.488 6.445l-1.468 6.227h7.745l-.468 2.075h-7.848l-4.576 18.649c-1.423 5.672-3.698 9.969-6.825 12.892-3.128 2.923-6.523 4.385-10.188 4.385-1.228 0-2.158-.239-2.792-.716-.633-.479-.95-1.067-.95-1.769 0-.604.22-1.087.658-1.447s1.066-.541 1.886-.541c.409 0 1.013.049 1.812.146 1.365.176 2.671.263 3.918.263 1.929 0 3.332-.453 4.209-1.359s1.754-3.123 2.631-6.649l5.934-23.854h-6.986l.525-2.075z" fill="#323232" />
        <path d="m235.576 199.921.965 1.286c-4.774 4.541-8.867 6.811-12.277 6.811-1.384 0-2.44-.468-3.172-1.403-.73-.935-1.096-2.436-1.096-4.501 0-4.17 1.267-8.321 3.8-12.453 2.846-4.696 6.246-7.045 10.202-7.045 1.384 0 2.44.347 3.172 1.038.73.691 1.096 1.642 1.096 2.85 0 1.268-.438 2.515-1.315 3.742s-2.445 2.504-4.706 3.829c-1.131.644-3.547 1.803-7.249 3.479a18.287 18.287 0 0 0-.264 3.011c0 1.384.22 2.349.658 2.895s1.076.818 1.914.818c.799 0 1.676-.224 2.631-.673 1.285-.605 3.166-1.833 5.641-3.684zm-10.231-4.239c3.137-1.402 5.495-2.913 7.074-4.53 1.071-1.13 1.607-2.251 1.607-3.362 0-.837-.22-1.505-.658-2.002s-1.008-.745-1.71-.745c-.721 0-1.423.272-2.104.818-.916.721-1.686 1.812-2.31 3.273a29.556 29.556 0 0 0-1.899 6.548z" fill="#323232" />
    </g>
</svg>
