 <svg
      width="104"
      height="110"
      viewBox="0 0 104 110"
      fill="none"
      xmlns="http://www.w3.org/2000/svg"
    >
      <path
        d="M65.7833 23.6231L65.5638 24.6723L66.6246 24.519C67.1459 24.4437 67.6793 24.4047 68.2223 24.4047C74.3367 24.4047 79.2934 29.3614 79.2934 35.4757C79.2934 41.5901 74.3367 46.5468 68.2223 46.5468H34.1059C27.9915 46.5468 23.0349 41.5901 23.0349 35.4757C23.0349 32.252 24.4117 29.351 26.6117 27.3267C28.5841 25.5119 31.2148 24.4047 34.1059 24.4047H35.6407C37.835 24.4047 39.7186 23.415 41.1527 22.2414C42.5864 21.0682 43.6313 19.6635 44.1665 18.7034L44.2127 18.6203L44.2369 18.5284C45.4822 13.7771 49.8063 10.2728 54.9469 10.2728C61.0613 10.2728 66.018 15.2295 66.018 21.3439C66.018 22.1259 65.937 22.8882 65.7833 23.6231Z"
        stroke="#197BBD"
        stroke-width="1.5"
      />
      <path
        d="M60.0389 62.3518V52.8613"
        stroke="#197BBD"
        stroke-width="1.5"
        stroke-linecap="round"
        stroke-linejoin="round"
      />
      <path
        d="M55.2947 57.6065L60.04 52.8613L64.7852 57.6065"
        stroke="#197BBD"
        stroke-width="1.5"
        stroke-linecap="round"
        stroke-linejoin="round"
      />
      <path
        d="M43.0927 44.7274L47.8379 39.9822L52.5832 44.7274"
        stroke="#197BBD"
        stroke-width="0.683017"
        stroke-linecap="round"
        stroke-linejoin="round"
      />
      <g clipPath="url(#clip0_1_150)">
        <path
          d="M44.9463 60.3988L36.3182 69.0269C35.7887 69.5564 35.7887 70.4148 36.3182 70.9443L42.0703 76.6964C42.5997 77.2258 43.4582 77.2258 43.9876 76.6964L52.6157 68.0682C53.1452 67.5388 53.1452 66.6803 52.6157 66.1509L46.8637 60.3988C46.3342 59.8693 45.4758 59.8693 44.9463 60.3988Z"
          stroke="#197BBD"
          stroke-width="1.5"
          stroke-linecap="round"
          stroke-linejoin="round"
        />
        <path
          d="M38.2358 72.8613L48.7813 62.3158"
          stroke="#197BBD"
          stroke-width="1.5"
          stroke-linecap="round"
          stroke-linejoin="round"
        />
      </g>
      <circle
        cx="37.1596"
        cy="17.8721"
        r="11.7215"
        transform="rotate(-30 37.1596 17.8721)"
        stroke="#197BBD"
        stroke-width="1.5"
      />
      <path
        d="M40.86 17.3756C41.0781 17.7534 41.177 18.1618 41.1566 18.6007C41.1444 19.0348 41.0128 19.4612 40.7617 19.88C40.5189 20.294 40.1735 20.6631 39.7255 20.9874L40.5293 22.3796C40.591 22.4864 40.6038 22.594 40.5678 22.7024C40.5448 22.8142 40.4799 22.901 40.3731 22.9626C40.2663 23.0243 40.1547 23.0395 40.0381 23.0082C39.9344 22.9805 39.8518 22.9132 39.7901 22.8064L38.9934 21.4265C38.457 21.6924 37.9266 21.8454 37.4021 21.8854C36.8776 21.9253 36.3133 21.8679 35.7091 21.7129C35.5631 21.6877 35.4569 21.6176 35.3905 21.5026C35.3336 21.404 35.3184 21.2923 35.3449 21.1675C35.3796 21.038 35.4463 20.9447 35.5449 20.8878C35.6434 20.8309 35.7575 20.8198 35.887 20.8545C36.8224 21.1468 37.718 21.0952 38.5738 20.6996L36.5821 17.25C35.6725 17.4575 34.9104 17.5033 34.2958 17.3872C33.6812 17.2711 33.1772 16.8722 32.7836 16.1905C32.4374 15.5909 32.3658 14.9642 32.5687 14.3104C32.767 13.6484 33.2085 13.0759 33.8933 12.5929L33.3456 11.6442C33.284 11.5375 33.267 11.4322 33.2948 11.3286C33.3261 11.212 33.3951 11.1229 33.5018 11.0612C33.6086 10.9996 33.7162 10.9868 33.8246 11.0227C33.9364 11.0458 34.0232 11.1107 34.0848 11.2174L34.6254 12.1538C35.0845 11.9435 35.5503 11.8115 36.023 11.7576C36.4956 11.7037 36.9252 11.7459 37.3117 11.8842C37.5155 11.9527 37.6459 12.0362 37.7028 12.1348C37.7549 12.2251 37.7636 12.3351 37.7289 12.4647C37.6895 12.586 37.6205 12.6751 37.5219 12.732C37.4398 12.7794 37.3534 12.791 37.2627 12.7667C36.941 12.6458 36.5831 12.595 36.1891 12.6144C35.7951 12.6338 35.4162 12.7267 35.0522 12.893L36.987 16.2441C37.5863 16.1062 38.1089 16.0344 38.5547 16.0289C39.004 16.0105 39.4262 16.1062 39.8212 16.3162C40.2197 16.5132 40.566 16.8664 40.86 17.3756ZM33.5332 15.7248C33.7703 16.1355 34.0996 16.3834 34.5211 16.4686C34.9509 16.5491 35.479 16.5343 36.1055 16.4245L34.313 13.3198C33.8534 13.6618 33.5516 14.0496 33.4077 14.4831C33.259 14.9085 33.3008 15.3224 33.5332 15.7248ZM39.3059 20.2605C39.7525 19.915 40.0519 19.5232 40.2041 19.0849C40.3515 18.6384 40.3114 18.218 40.0838 17.8237C39.829 17.4014 39.4885 17.1435 39.0622 17.0501C38.6312 16.9485 38.0959 16.9509 37.4565 17.0573L39.3059 20.2605Z"
        fill="#197BBD"
      />
      <path
        d="M22.2849 35.4745C22.2849 42.0031 27.5773 47.2955 34.1059 47.2955H68.2223C74.7509 47.2955 80.0434 42.0031 80.0434 35.4745C80.0434 28.9459 74.7509 23.6534 68.2223 23.6534C67.6433 23.6534 67.0741 23.695 66.5174 23.7755C66.6816 22.9903 66.768 22.1765 66.768 21.3426C66.768 14.814 61.4755 9.52155 54.9469 9.52155C49.4569 9.52155 44.8411 13.264 43.5114 18.337C42.5235 20.1091 39.5665 23.6534 35.6407 23.6534H34.1059C31.0194 23.6534 28.2092 24.8363 26.1039 26.7735C23.756 28.9339 22.2849 32.0324 22.2849 35.4745Z"
        fill="white"
      />
      <path
        d="M65.7833 23.6219L65.5638 24.671L66.6246 24.5178C67.1459 24.4425 67.6793 24.4034 68.2223 24.4034C74.3367 24.4034 79.2934 29.3601 79.2934 35.4745C79.2934 41.5889 74.3367 46.5455 68.2223 46.5455H34.1059C27.9915 46.5455 23.0349 41.5889 23.0349 35.4745C23.0349 32.2508 24.4117 29.3497 26.6117 27.3254C28.5841 25.5106 31.2148 24.4034 34.1059 24.4034H35.6407C37.835 24.4034 39.7186 23.4138 41.1527 22.2402C42.5864 21.067 43.6313 19.6622 44.1665 18.7021L44.2127 18.6191L44.2369 18.5271C45.4822 13.7759 49.8063 10.2715 54.9469 10.2715C61.0613 10.2715 66.018 15.2282 66.018 21.3426C66.018 22.1246 65.937 22.8869 65.7833 23.6219Z"
        stroke="#197BBD"
        stroke-width="1.5"
      />
      <path
        d="M88.3507 14.4884C88.1996 16.1237 87.5858 17.6823 86.5812 18.9815C85.5767 20.2808 84.2229 21.2671 82.6782 21.8251C81.1336 22.383 79.4619 22.4895 77.859 22.1321C76.256 21.7747 74.788 20.9681 73.6267 19.8068C72.4653 18.6455 71.6588 17.1775 71.3014 15.5745C70.9439 13.9715 71.0504 12.2999 71.6084 10.7552C72.1663 9.21058 73.1526 7.85676 74.4519 6.8522C75.7512 5.84764 77.3097 5.23389 78.9451 5.08276C77.9876 6.37809 77.5269 7.97405 77.6467 9.58037C77.7665 11.1867 78.4588 12.6967 79.5978 13.8356C80.7368 14.9746 82.2468 15.667 83.8531 15.7868C85.4594 15.9066 87.0554 15.4458 88.3507 14.4884V14.4884Z"
        stroke="#197BBD"
        stroke-width="1.5"
        stroke-linecap="round"
        stroke-linejoin="round"
      />
      <rect
        x="39.7032"
        y="38.6354"
        width="16.2694"
        height="13.4883"
        fill="white"
      />
      <path
        d="M47.838 49.4714V39.9809"
        stroke="#197BBD"
        stroke-width="1.5"
        stroke-linecap="round"
        stroke-linejoin="round"
      />
      <path
        d="M47.838 48.1258V38.6354"
        stroke="#197BBD"
        stroke-width="1.5"
        stroke-linecap="round"
        stroke-linejoin="round"
      />
      <path
        d="M43.0925 43.3806L47.8378 38.6354L52.583 43.3806"
        stroke="#197BBD"
        stroke-width="1.5"
        stroke-linecap="round"
        stroke-linejoin="round"
      />
      <path
        d="M23.4669 96.6416C22.8952 96.6416 22.3818 96.5016 21.9267 96.2216C21.4775 95.9415 21.1245 95.5623 20.8678 95.0839C20.6169 94.5997 20.4915 94.0688 20.4915 93.4912C20.4915 92.937 20.6024 92.4353 20.8241 91.986C21.0458 91.531 21.3608 91.1722 21.7692 90.9097C22.1834 90.6471 22.6618 90.5159 23.2044 90.5159C23.7061 90.5159 24.1378 90.583 24.4995 90.7171C24.8671 90.8455 25.1354 91.0118 25.3046 91.216C25.398 91.3326 25.4563 91.4872 25.4796 91.6798C25.5088 91.8723 25.5234 92.1115 25.5234 92.3974H25.3484C25.2375 91.884 25.0275 91.5018 24.7183 91.251C24.4091 90.9943 23.992 90.8659 23.4669 90.8659C22.9943 90.8659 22.6005 90.9913 22.2855 91.2422C21.9705 91.4872 21.7371 91.8081 21.5854 92.2048C21.4396 92.6015 21.3666 93.0303 21.3666 93.4912C21.3666 94.4772 21.5591 95.1919 21.9442 95.6353C22.3292 96.0728 22.8368 96.2916 23.4669 96.2916C23.7644 96.2916 24.0182 96.2653 24.2282 96.2128C24.4383 96.1603 24.6366 96.0845 24.8233 95.9853V94.4626C24.8233 94.2643 24.8554 94.0921 24.9196 93.9463C24.9837 93.8004 25.1208 93.6808 25.3309 93.5875C25.5467 93.4883 25.8589 93.4387 26.2672 93.4387V93.6138C26.0047 93.6138 25.8297 93.6808 25.7422 93.815C25.6547 93.9492 25.6109 94.1592 25.6109 94.4451V96.0903C25.2959 96.2828 24.9662 96.4229 24.622 96.5104C24.2778 96.5979 23.8928 96.6416 23.4669 96.6416ZM27.4988 91.8285C27.3646 91.8285 27.2479 91.7731 27.1487 91.6623C27.0554 91.5514 27.0087 91.4201 27.0087 91.2685C27.0087 91.1459 27.0437 91.0497 27.1137 90.9797C27.1895 90.9097 27.2887 90.8747 27.4112 90.8747C27.5454 90.8747 27.6592 90.9301 27.7525 91.0409C27.8517 91.1518 27.9013 91.283 27.9013 91.4347C27.9013 91.5572 27.8634 91.6535 27.7875 91.7235C27.7175 91.7935 27.6213 91.8285 27.4988 91.8285ZM27.1662 93.4037C27.1662 93.1062 27.1254 92.8874 27.0437 92.7474C26.962 92.6015 26.7987 92.5286 26.5536 92.5286H26.3786V92.3536H27.1662C27.3821 92.3536 27.5425 92.3828 27.6475 92.4411C27.7584 92.4936 27.8371 92.5928 27.8838 92.7386C27.9305 92.8845 27.9538 93.1062 27.9538 93.4037V96.4666H27.1662V93.4037ZM29.4248 93.36C29.2848 93.0333 29.1506 92.8057 29.0223 92.6774C28.8939 92.5432 28.7247 92.4703 28.5147 92.4586V92.2836C28.5439 92.2836 28.5847 92.2807 28.6372 92.2748C28.6956 92.269 28.7539 92.2661 28.8122 92.2661C29.1214 92.2661 29.4015 92.3448 29.6523 92.5024C29.9032 92.6541 30.1191 92.9399 30.2999 93.36L31.0875 95.2415L32.3127 92.3536H32.7502L30.9563 96.5541H30.7812L29.4248 93.36ZM35.0715 96.5541C34.6748 96.5541 34.3394 96.4608 34.0652 96.2741C33.791 96.0816 33.5838 95.8249 33.4438 95.504C33.3038 95.1773 33.2338 94.8127 33.2338 94.4101C33.2338 94.0134 33.3038 93.6517 33.4438 93.325C33.5838 92.9983 33.7851 92.7416 34.0477 92.5549C34.316 92.3623 34.6281 92.2661 34.984 92.2661C35.5733 92.2661 36.0108 92.4324 36.2967 92.7649C36.5884 93.0916 36.7342 93.5671 36.7342 94.1913L36.7167 94.5414H34.0652C34.0652 95.0314 34.1702 95.4311 34.3802 95.7403C34.5902 96.0495 34.879 96.2041 35.2466 96.2041C35.5208 96.2041 35.7512 96.1457 35.9379 96.0291C36.1304 95.9124 36.3084 95.7374 36.4717 95.504L36.6467 95.6353C36.4542 95.9561 36.2296 96.1895 35.9729 96.3353C35.7162 96.4812 35.4157 96.5541 35.0715 96.5541ZM35.9029 94.1913C35.9029 93.6779 35.827 93.287 35.6754 93.0187C35.5237 92.7503 35.2932 92.6161 34.984 92.6161C34.809 92.6161 34.6515 92.6861 34.5115 92.8262C34.3714 92.9603 34.2606 93.147 34.1789 93.3862C34.1031 93.6254 34.0652 93.8938 34.0652 94.1913H35.9029ZM40.2196 97.9543C40.5055 97.9543 40.7389 97.8872 40.9197 97.753C41.1064 97.6247 41.2669 97.3855 41.401 97.0354L41.5761 96.5541L40.1759 93.1412C40.0125 92.7211 39.6917 92.4878 39.2133 92.4411V92.2661H39.9571C40.4647 92.2661 40.8147 92.4994 41.0072 92.9662L42.0049 95.3902L43.1075 92.3536H43.5451L41.8386 97.0354C41.6694 97.4963 41.4827 97.8084 41.2785 97.9718C41.0743 98.1352 40.8089 98.2168 40.4822 98.2168H40.2196V97.9543ZM46.0381 96.5541C45.6414 96.5541 45.2972 96.4608 45.0055 96.2741C44.7138 96.0816 44.4921 95.8219 44.3404 95.4952C44.1887 95.1685 44.1129 94.8068 44.1129 94.4101C44.1129 94.0134 44.1887 93.6517 44.3404 93.325C44.4921 92.9983 44.7138 92.7416 45.0055 92.5549C45.2972 92.3623 45.6414 92.2661 46.0381 92.2661C46.4348 92.2661 46.779 92.3623 47.0707 92.5549C47.3624 92.7416 47.5841 92.9983 47.7358 93.325C47.8875 93.6517 47.9633 94.0134 47.9633 94.4101C47.9633 94.8068 47.8875 95.1685 47.7358 95.4952C47.5841 95.8219 47.3624 96.0816 47.0707 96.2741C46.779 96.4608 46.4348 96.5541 46.0381 96.5541ZM46.0381 96.2041C46.254 96.2041 46.4436 96.1253 46.6069 95.9678C46.7761 95.8103 46.9045 95.5944 46.992 95.3202C47.0853 95.046 47.132 94.7426 47.132 94.4101C47.132 94.0776 47.0853 93.7742 46.992 93.5C46.9045 93.2258 46.7761 93.0099 46.6069 92.8524C46.4436 92.6949 46.254 92.6161 46.0381 92.6161C45.8222 92.6161 45.6297 92.6949 45.4605 92.8524C45.2972 93.0099 45.1688 93.2258 45.0755 93.5C44.988 93.7742 44.9442 94.0776 44.9442 94.4101C44.9442 94.7426 44.988 95.046 45.0755 95.3202C45.1688 95.5944 45.2972 95.8103 45.4605 95.9678C45.6297 96.1253 45.8222 96.2041 46.0381 96.2041ZM50.4861 96.5541C50.0485 96.5541 49.6897 96.4374 49.4097 96.2041C49.1355 95.9707 48.9984 95.5623 48.9984 94.9789V93.4037C48.9984 93.1062 48.9575 92.8874 48.8759 92.7474C48.7942 92.6015 48.6308 92.5286 48.3858 92.5286H48.2983V92.3536H48.9984C49.2142 92.3536 49.3747 92.3828 49.4797 92.4411C49.5905 92.4936 49.6693 92.5928 49.716 92.7386C49.7626 92.8845 49.786 93.1062 49.786 93.4037V94.9789C49.786 95.3873 49.8764 95.6878 50.0572 95.8803C50.2439 96.067 50.4744 96.1603 50.7486 96.1603C51.0578 96.1603 51.3495 96.0057 51.6237 95.6965V92.3536H52.4113V96.4666H51.9737L51.6675 96.1166H51.6237C51.5012 96.2391 51.3407 96.3441 51.1424 96.4316C50.9499 96.5133 50.7311 96.5541 50.4861 96.5541ZM53.7428 93.4037C53.7428 93.1062 53.702 92.8874 53.6203 92.7474C53.5386 92.6015 53.3753 92.5286 53.1303 92.5286H53.0427V92.3536H53.7428C53.9645 92.3536 54.1308 92.3857 54.2416 92.4499C54.3583 92.5082 54.44 92.6074 54.4867 92.7474H54.5304C54.6354 92.6132 54.7755 92.4994 54.9505 92.4061C55.1313 92.3128 55.3414 92.2661 55.5806 92.2661C55.8139 92.2661 55.9889 92.3098 56.1056 92.3974C56.2048 92.4732 56.3069 92.6045 56.4119 92.7912L56.0619 93.0537C55.9977 92.9662 55.9044 92.902 55.7818 92.8612C55.6593 92.8145 55.5193 92.7912 55.3618 92.7912C55.1868 92.7912 55.0263 92.832 54.8805 92.9137C54.7346 92.9895 54.6179 93.0945 54.5304 93.2287V96.4666H53.7428V93.4037ZM59.4701 93.4037C59.4701 93.1062 59.4292 92.8874 59.3476 92.7474C59.2659 92.6015 59.1025 92.5286 58.8575 92.5286H58.6825V92.3536H59.4701C59.6859 92.3536 59.8493 92.3828 59.9601 92.4411C60.0768 92.4994 60.1614 92.587 60.2139 92.7036H60.2577C60.3802 92.5811 60.5377 92.479 60.7302 92.3974C60.9286 92.3098 61.1503 92.2661 61.3953 92.2661C61.6404 92.2661 61.8504 92.3128 62.0254 92.4061C62.2004 92.4936 62.3404 92.6511 62.4455 92.8787C62.5971 92.6861 62.7897 92.5374 63.023 92.4324C63.2622 92.3215 63.5073 92.2661 63.7581 92.2661C64.1315 92.2661 64.429 92.3828 64.6507 92.6161C64.8724 92.8495 64.9833 93.2579 64.9833 93.8413V96.4666H64.1957V93.8413C64.1957 93.4212 64.1373 93.1208 64.0207 92.9399C63.904 92.7532 63.729 92.6599 63.4956 92.6599C63.3322 92.6599 63.1601 92.7211 62.9793 92.8437C62.7984 92.9603 62.6642 93.0887 62.5767 93.2287C62.6059 93.3162 62.6205 93.5204 62.6205 93.8413V96.4666H61.8329V93.8413C61.8329 93.4212 61.7745 93.1208 61.6579 92.9399C61.5412 92.7532 61.3662 92.6599 61.1328 92.6599C60.8236 92.6599 60.5319 92.8145 60.2577 93.1237V96.4666H59.4701V93.4037ZM67.8988 96.5541C67.502 96.5541 67.1578 96.4608 66.8661 96.2741C66.5744 96.0816 66.3527 95.8219 66.201 95.4952C66.0494 95.1685 65.9735 94.8068 65.9735 94.4101C65.9735 94.0134 66.0494 93.6517 66.201 93.325C66.3527 92.9983 66.5744 92.7416 66.8661 92.5549C67.1578 92.3623 67.502 92.2661 67.8988 92.2661C68.2955 92.2661 68.6397 92.3623 68.9314 92.5549C69.2231 92.7416 69.4448 92.9983 69.5965 93.325C69.7482 93.6517 69.824 94.0134 69.824 94.4101C69.824 94.8068 69.7482 95.1685 69.5965 95.4952C69.4448 95.8219 69.2231 96.0816 68.9314 96.2741C68.6397 96.4608 68.2955 96.5541 67.8988 96.5541ZM67.8988 96.2041C68.1146 96.2041 68.3042 96.1253 68.4676 95.9678C68.6368 95.8103 68.7651 95.5944 68.8526 95.3202C68.946 95.046 68.9926 94.7426 68.9926 94.4101C68.9926 94.0776 68.946 93.7742 68.8526 93.5C68.7651 93.2258 68.6368 93.0099 68.4676 92.8524C68.3042 92.6949 68.1146 92.6161 67.8988 92.6161C67.6829 92.6161 67.4904 92.6949 67.3212 92.8524C67.1578 93.0099 67.0295 93.2258 66.9361 93.5C66.8486 93.7742 66.8049 94.0776 66.8049 94.4101C66.8049 94.7426 66.8486 95.046 66.9361 95.3202C67.0295 95.5944 67.1578 95.8103 67.3212 95.9678C67.4904 96.1253 67.6829 96.2041 67.8988 96.2041ZM70.9815 93.4037C70.9815 93.1062 70.9407 92.8874 70.859 92.7474C70.7774 92.6015 70.614 92.5286 70.369 92.5286H70.1939V92.3536H70.9815C71.1974 92.3536 71.3608 92.3828 71.4716 92.4411C71.5883 92.4994 71.6729 92.587 71.7254 92.7036H71.7691C71.8917 92.5811 72.0492 92.479 72.2417 92.3974C72.4401 92.3098 72.6618 92.2661 72.9068 92.2661C73.3443 92.2661 73.7002 92.3828 73.9744 92.6161C74.2545 92.8495 74.3945 93.2579 74.3945 93.8413V96.4666H73.6069V93.8413C73.6069 93.4329 73.5135 93.1354 73.3268 92.9487C73.146 92.7561 72.9185 92.6599 72.6443 92.6599C72.335 92.6599 72.0433 92.8145 71.7691 93.1237V96.4666H70.9815V93.4037ZM77.2118 96.5541C76.8151 96.5541 76.4797 96.4608 76.2055 96.2741C75.9313 96.0816 75.7242 95.8249 75.5841 95.504C75.4441 95.1773 75.3741 94.8127 75.3741 94.4101C75.3741 94.0134 75.4441 93.6517 75.5841 93.325C75.7242 92.9983 75.9254 92.7416 76.188 92.5549C76.4563 92.3623 76.7685 92.2661 77.1243 92.2661C77.7136 92.2661 78.1511 92.4324 78.437 92.7649C78.7287 93.0916 78.8746 93.5671 78.8746 94.1913L78.8571 94.5414H76.2055C76.2055 95.0314 76.3105 95.4311 76.5205 95.7403C76.7305 96.0495 77.0193 96.2041 77.3869 96.2041C77.6611 96.2041 77.8915 96.1457 78.0782 96.0291C78.2707 95.9124 78.4487 95.7374 78.612 95.504L78.787 95.6353C78.5945 95.9561 78.3699 96.1895 78.1132 96.3353C77.8565 96.4812 77.5561 96.5541 77.2118 96.5541ZM78.0432 94.1913C78.0432 93.6779 77.9674 93.287 77.8157 93.0187C77.664 92.7503 77.4335 92.6161 77.1243 92.6161C76.9493 92.6161 76.7918 92.6861 76.6518 92.8262C76.5118 92.9603 76.4009 93.147 76.3192 93.3862C76.2434 93.6254 76.2055 93.8938 76.2055 94.1913H78.0432ZM80.1295 97.9543C80.4153 97.9543 80.6487 97.8872 80.8295 97.753C81.0162 97.6247 81.1767 97.3855 81.3109 97.0354L81.4859 96.5541L80.0857 93.1412C79.9223 92.7211 79.6015 92.4878 79.1231 92.4411V92.2661H79.8669C80.3745 92.2661 80.7245 92.4994 80.9171 92.9662L81.9147 95.3902L83.0173 92.3536H83.4549L81.7484 97.0354C81.5792 97.4963 81.3925 97.8084 81.1883 97.9718C80.9841 98.1352 80.7187 98.2168 80.392 98.2168H80.1295V97.9543ZM8.6883 105.554C8.50161 105.554 8.312 105.516 8.11948 105.44C7.92695 105.359 7.76068 105.227 7.62066 105.047C7.48648 104.866 7.41939 104.627 7.41939 104.329C7.41939 103.886 7.62358 103.571 8.03196 103.384C8.44618 103.197 8.98583 103.104 9.65092 103.104H9.91345C9.91345 102.532 9.83469 102.141 9.67717 101.931C9.51965 101.721 9.29212 101.616 8.99459 101.616C8.73205 101.616 8.52203 101.672 8.36451 101.782C8.20699 101.893 8.09614 102.086 8.03196 102.36H7.63817C7.63817 102.162 7.64983 102.007 7.67317 101.896C7.69651 101.779 7.75776 101.672 7.85694 101.572C7.96196 101.467 8.13406 101.392 8.37326 101.345C8.61829 101.292 8.88374 101.266 9.16961 101.266C9.64217 101.266 10.0155 101.394 10.2897 101.651C10.564 101.902 10.7011 102.386 10.7011 103.104V105.467H10.2635L9.95721 105.073H9.91345C9.80844 105.207 9.65384 105.321 9.44964 105.414C9.24545 105.507 8.99167 105.554 8.6883 105.554ZM9.0821 105.16C9.27462 105.16 9.43506 105.114 9.56341 105.02C9.69176 104.927 9.80844 104.799 9.91345 104.635V103.454H9.65092C9.2192 103.454 8.8779 103.536 8.62704 103.699C8.37617 103.856 8.25074 104.066 8.25074 104.329C8.25074 104.597 8.3295 104.804 8.48702 104.95C8.65038 105.09 8.84873 105.16 9.0821 105.16ZM12.0809 102.36C11.9467 102.033 11.8126 101.806 11.6784 101.677C11.55 101.543 11.3779 101.47 11.1621 101.459V101.284C11.1912 101.284 11.235 101.281 11.2933 101.275C11.3517 101.269 11.41 101.266 11.4683 101.266C11.7834 101.266 12.0605 101.348 12.2997 101.511C12.5447 101.669 12.7489 101.952 12.9123 102.36L13.6561 104.198L14.4 102.316C14.2599 102.007 14.1258 101.791 13.9974 101.669C13.8749 101.54 13.7174 101.47 13.5249 101.459V101.284C13.554 101.284 13.5978 101.281 13.6561 101.275C13.7145 101.269 13.7728 101.266 13.8311 101.266C14.1462 101.266 14.4233 101.348 14.6625 101.511C14.9075 101.669 15.1117 101.952 15.2751 102.36L16.0189 104.198L17.1566 101.354H17.5941L15.8877 105.554H15.7126L14.6187 102.841L13.5249 105.554H13.3498L12.0809 102.36ZM19.9323 105.554C19.5356 105.554 19.2001 105.461 18.9259 105.274C18.6517 105.082 18.4446 104.825 18.3046 104.504C18.1646 104.177 18.0946 103.813 18.0946 103.41C18.0946 103.013 18.1646 102.652 18.3046 102.325C18.4446 101.998 18.6459 101.742 18.9084 101.555C19.1768 101.362 19.4889 101.266 19.8448 101.266C20.434 101.266 20.8716 101.432 21.1575 101.765C21.4492 102.092 21.595 102.567 21.595 103.191L21.5775 103.541H18.9259C18.9259 104.031 19.0309 104.431 19.241 104.74C19.451 105.049 19.7398 105.204 20.1073 105.204C20.3815 105.204 20.612 105.146 20.7987 105.029C20.9912 104.912 21.1691 104.737 21.3325 104.504L21.5075 104.635C21.315 104.956 21.0904 105.189 20.8337 105.335C20.577 105.481 20.2765 105.554 19.9323 105.554ZM20.7637 103.191C20.7637 102.678 20.6878 102.287 20.5361 102.019C20.3844 101.75 20.154 101.616 19.8448 101.616C19.6698 101.616 19.5122 101.686 19.3722 101.826C19.2322 101.96 19.1214 102.147 19.0397 102.386C18.9638 102.625 18.9259 102.894 18.9259 103.191H20.7637ZM23.9778 105.554C23.3069 105.554 22.8547 105.437 22.6213 105.204C22.5222 105.105 22.4609 104.994 22.4376 104.872C22.4142 104.743 22.4026 104.548 22.4026 104.285H22.5776C22.6301 104.577 22.7555 104.804 22.9539 104.968C23.1581 105.125 23.441 105.204 23.8027 105.204C24.1236 105.204 24.3628 105.149 24.5203 105.038C24.6837 104.927 24.7654 104.778 24.7654 104.592C24.7654 104.422 24.7012 104.276 24.5728 104.154C24.4503 104.031 24.252 103.915 23.9778 103.804L23.4527 103.585C23.1027 103.445 22.8401 103.282 22.6651 103.095C22.4901 102.908 22.4026 102.678 22.4026 102.404C22.4026 102.048 22.5368 101.771 22.8051 101.572C23.0735 101.368 23.4206 101.266 23.8465 101.266C24.4883 101.266 24.9258 101.383 25.1592 101.616C25.2583 101.715 25.3196 101.826 25.3429 101.949C25.3663 102.071 25.3779 102.267 25.3779 102.535H25.2029C25.1563 102.243 25.0337 102.019 24.8354 101.861C24.637 101.698 24.3657 101.616 24.0215 101.616C23.7473 101.616 23.5315 101.674 23.3739 101.791C23.2223 101.902 23.1464 102.048 23.1464 102.229C23.1464 102.532 23.3798 102.78 23.8465 102.973L24.3716 103.191C24.7683 103.355 25.0571 103.53 25.2379 103.716C25.4188 103.897 25.5092 104.131 25.5092 104.416C25.5092 104.772 25.3663 105.052 25.0804 105.257C24.7945 105.455 24.427 105.554 23.9778 105.554ZM28.1983 105.554C27.8016 105.554 27.4574 105.461 27.1657 105.274C26.874 105.082 26.6523 104.822 26.5006 104.495C26.3489 104.169 26.2731 103.807 26.2731 103.41C26.2731 103.013 26.3489 102.652 26.5006 102.325C26.6523 101.998 26.874 101.742 27.1657 101.555C27.4574 101.362 27.8016 101.266 28.1983 101.266C28.595 101.266 28.9393 101.362 29.231 101.555C29.5227 101.742 29.7444 101.998 29.896 102.325C30.0477 102.652 30.1236 103.013 30.1236 103.41C30.1236 103.807 30.0477 104.169 29.896 104.495C29.7444 104.822 29.5227 105.082 29.231 105.274C28.9393 105.461 28.595 105.554 28.1983 105.554ZM28.1983 105.204C28.4142 105.204 28.6038 105.125 28.7672 104.968C28.9363 104.81 29.0647 104.594 29.1522 104.32C29.2455 104.046 29.2922 103.743 29.2922 103.41C29.2922 103.078 29.2455 102.774 29.1522 102.5C29.0647 102.226 28.9363 102.01 28.7672 101.852C28.6038 101.695 28.4142 101.616 28.1983 101.616C27.9825 101.616 27.7899 101.695 27.6208 101.852C27.4574 102.01 27.3291 102.226 27.2357 102.5C27.1482 102.774 27.1044 103.078 27.1044 103.41C27.1044 103.743 27.1482 104.046 27.2357 104.32C27.3291 104.594 27.4574 104.81 27.6208 104.968C27.7899 105.125 27.9825 105.204 28.1983 105.204ZM31.2811 102.404C31.2811 102.106 31.2403 101.887 31.1586 101.747C31.0769 101.602 30.9136 101.529 30.6685 101.529H30.4935V101.354H31.2811C31.497 101.354 31.6603 101.383 31.7712 101.441C31.8879 101.499 31.9724 101.587 32.025 101.704H32.0687C32.1912 101.581 32.3487 101.479 32.5413 101.397C32.7396 101.31 32.9613 101.266 33.2064 101.266C33.4514 101.266 33.6614 101.313 33.8364 101.406C34.0115 101.494 34.1515 101.651 34.2565 101.879C34.4082 101.686 34.6007 101.537 34.8341 101.432C35.0733 101.322 35.3183 101.266 35.5692 101.266C35.9425 101.266 36.2401 101.383 36.4618 101.616C36.6835 101.849 36.7943 102.258 36.7943 102.841V105.467H36.0067V102.841C36.0067 102.421 35.9484 102.121 35.8317 101.94C35.715 101.753 35.54 101.66 35.3066 101.66C35.1433 101.66 34.9712 101.721 34.7903 101.844C34.6094 101.96 34.4753 102.089 34.3878 102.229C34.4169 102.316 34.4315 102.52 34.4315 102.841V105.467H33.6439V102.841C33.6439 102.421 33.5856 102.121 33.4689 101.94C33.3522 101.753 33.1772 101.66 32.9438 101.66C32.6346 101.66 32.3429 101.814 32.0687 102.124V105.467H31.2811V102.404ZM39.6223 105.554C39.2256 105.554 38.8901 105.461 38.6159 105.274C38.3417 105.082 38.1346 104.825 37.9946 104.504C37.8546 104.177 37.7845 103.813 37.7845 103.41C37.7845 103.013 37.8546 102.652 37.9946 102.325C38.1346 101.998 38.3359 101.742 38.5984 101.555C38.8668 101.362 39.1789 101.266 39.5348 101.266C40.124 101.266 40.5616 101.432 40.8474 101.765C41.1391 102.092 41.285 102.567 41.285 103.191L41.2675 103.541H38.6159C38.6159 104.031 38.7209 104.431 38.9309 104.74C39.141 105.049 39.4298 105.204 39.7973 105.204C40.0715 105.204 40.3019 105.146 40.4886 105.029C40.6812 104.912 40.8591 104.737 41.0225 104.504L41.1975 104.635C41.005 104.956 40.7803 105.189 40.5236 105.335C40.2669 105.481 39.9665 105.554 39.6223 105.554ZM40.4536 103.191C40.4536 102.678 40.3778 102.287 40.2261 102.019C40.0744 101.75 39.844 101.616 39.5348 101.616C39.3597 101.616 39.2022 101.686 39.0622 101.826C38.9222 101.96 38.8113 102.147 38.7297 102.386C38.6538 102.625 38.6159 102.894 38.6159 103.191H40.4536ZM45.8555 105.554C45.1846 105.554 44.7325 105.437 44.4991 105.204C44.3999 105.105 44.3387 104.994 44.3153 104.872C44.292 104.743 44.2803 104.548 44.2803 104.285H44.4553C44.5079 104.577 44.6333 104.804 44.8316 104.968C45.0358 105.125 45.3188 105.204 45.6805 105.204C46.0014 105.204 46.2406 105.149 46.3981 105.038C46.5614 104.927 46.6431 104.778 46.6431 104.592C46.6431 104.422 46.5789 104.276 46.4506 104.154C46.3281 104.031 46.1297 103.915 45.8555 103.804L45.3305 103.585C44.9804 103.445 44.7179 103.282 44.5429 103.095C44.3678 102.908 44.2803 102.678 44.2803 102.404C44.2803 102.048 44.4145 101.771 44.6829 101.572C44.9512 101.368 45.2984 101.266 45.7243 101.266C46.366 101.266 46.8036 101.383 47.0369 101.616C47.1361 101.715 47.1974 101.826 47.2207 101.949C47.244 102.071 47.2557 102.267 47.2557 102.535H47.0807C47.034 102.243 46.9115 102.019 46.7131 101.861C46.5148 101.698 46.2435 101.616 45.8993 101.616C45.6251 101.616 45.4092 101.674 45.2517 101.791C45.1 101.902 45.0242 102.048 45.0242 102.229C45.0242 102.532 45.2575 102.78 45.7243 102.973L46.2493 103.191C46.646 103.355 46.9348 103.53 47.1157 103.716C47.2965 103.897 47.387 104.131 47.387 104.416C47.387 104.772 47.244 105.052 46.9582 105.257C46.6723 105.455 46.3047 105.554 45.8555 105.554ZM48.5184 102.404C48.5184 102.106 48.4775 101.887 48.3959 101.747C48.3142 101.602 48.1508 101.529 47.9058 101.529H47.7308V101.354H48.5184C48.7401 101.354 48.9064 101.386 49.0172 101.45C49.1339 101.508 49.2156 101.607 49.2622 101.747H49.306C49.411 101.613 49.5598 101.499 49.7523 101.406C49.9448 101.313 50.1898 101.266 50.4874 101.266C50.9891 101.266 51.3771 101.47 51.6513 101.879C51.9255 102.281 52.0626 102.792 52.0626 103.41C52.0626 104.034 51.9196 104.548 51.6338 104.95C51.3537 105.353 50.9424 105.554 50.3999 105.554C50.1782 105.554 49.9827 105.531 49.8136 105.484C49.6444 105.437 49.4752 105.373 49.306 105.292V107.129H48.5184V102.404ZM50.1373 105.204C50.5107 105.204 50.7849 105.041 50.9599 104.714C51.1408 104.387 51.2312 103.953 51.2312 103.41C51.2312 102.873 51.1466 102.442 50.9774 102.115C50.8083 101.782 50.5574 101.616 50.2249 101.616C49.834 101.616 49.5277 101.791 49.306 102.141V104.942C49.481 105.023 49.6327 105.087 49.761 105.134C49.8894 105.181 50.0148 105.204 50.1373 105.204ZM54.0761 105.554C53.8894 105.554 53.6998 105.516 53.5073 105.44C53.3147 105.359 53.1485 105.227 53.0085 105.047C52.8743 104.866 52.8072 104.627 52.8072 104.329C52.8072 103.886 53.0114 103.571 53.4198 103.384C53.834 103.197 54.3736 103.104 55.0387 103.104H55.3012C55.3012 102.532 55.2225 102.141 55.065 101.931C54.9074 101.721 54.6799 101.616 54.3824 101.616C54.1198 101.616 53.9098 101.672 53.7523 101.782C53.5948 101.893 53.4839 102.086 53.4198 102.36H53.026C53.026 102.162 53.0376 102.007 53.061 101.896C53.0843 101.779 53.1456 101.672 53.2447 101.572C53.3498 101.467 53.5219 101.392 53.7611 101.345C54.0061 101.292 54.2715 101.266 54.5574 101.266C55.03 101.266 55.4033 101.394 55.6775 101.651C55.9517 101.902 56.0888 102.386 56.0888 103.104V105.467H55.6513L55.345 105.073H55.3012C55.1962 105.207 55.0416 105.321 54.8374 105.414C54.6332 105.507 54.3795 105.554 54.0761 105.554ZM54.4699 105.16C54.6624 105.16 54.8229 105.114 54.9512 105.02C55.0796 104.927 55.1962 104.799 55.3012 104.635V103.454H55.0387C54.607 103.454 54.2657 103.536 54.0148 103.699C53.764 103.856 53.6385 104.066 53.6385 104.329C53.6385 104.597 53.7173 104.804 53.8748 104.95C54.0382 105.09 54.2365 105.16 54.4699 105.16ZM58.9981 105.554C58.5781 105.554 58.2222 105.461 57.9305 105.274C57.6446 105.082 57.4287 104.825 57.2829 104.504C57.1429 104.177 57.0729 103.813 57.0729 103.41C57.0729 103.008 57.1429 102.646 57.2829 102.325C57.4287 101.998 57.6446 101.742 57.9305 101.555C58.2222 101.362 58.5781 101.266 58.9981 101.266C59.6399 101.266 60.0628 101.368 60.267 101.572C60.3662 101.672 60.4275 101.794 60.4508 101.94C60.4741 102.08 60.4858 102.337 60.4858 102.71H60.3108C60.2874 102.348 60.1737 102.077 59.9695 101.896C59.7653 101.709 59.4998 101.616 59.1731 101.616C58.7531 101.616 58.4351 101.782 58.2193 102.115C58.0092 102.447 57.9042 102.879 57.9042 103.41C57.9042 103.941 58.0092 104.373 58.2193 104.705C58.4351 105.038 58.7531 105.204 59.1731 105.204C59.4707 105.204 59.7157 105.149 59.9082 105.038C60.1007 104.921 60.2787 104.743 60.442 104.504L60.6171 104.635C60.4245 104.962 60.197 105.198 59.9345 105.344C59.6719 105.484 59.3598 105.554 58.9981 105.554ZM63.1409 105.554C62.7441 105.554 62.4087 105.461 62.1345 105.274C61.8603 105.082 61.6532 104.825 61.5132 104.504C61.3731 104.177 61.3031 103.813 61.3031 103.41C61.3031 103.013 61.3731 102.652 61.5132 102.325C61.6532 101.998 61.8545 101.742 62.117 101.555C62.3854 101.362 62.6975 101.266 63.0534 101.266C63.6426 101.266 64.0801 101.432 64.366 101.765C64.6577 102.092 64.8036 102.567 64.8036 103.191L64.7861 103.541H62.1345C62.1345 104.031 62.2395 104.431 62.4495 104.74C62.6596 105.049 62.9483 105.204 63.3159 105.204C63.5901 105.204 63.8205 105.146 64.0072 105.029C64.1997 104.912 64.3777 104.737 64.541 104.504L64.7161 104.635C64.5235 104.956 64.2989 105.189 64.0422 105.335C63.7855 105.481 63.4851 105.554 63.1409 105.554ZM63.9722 103.191C63.9722 102.678 63.8964 102.287 63.7447 102.019C63.593 101.75 63.3626 101.616 63.0534 101.616C62.8783 101.616 62.7208 101.686 62.5808 101.826C62.4408 101.96 62.3299 102.147 62.2483 102.386C62.1724 102.625 62.1345 102.894 62.1345 103.191H63.9722ZM68.464 100.829C68.3298 100.829 68.2131 100.773 68.114 100.662C68.0206 100.551 67.9739 100.42 67.9739 100.268C67.9739 100.146 68.0089 100.05 68.0789 99.9797C68.1548 99.9097 68.254 99.8747 68.3765 99.8747C68.5107 99.8747 68.6244 99.9301 68.7178 100.041C68.817 100.152 68.8665 100.283 68.8665 100.435C68.8665 100.557 68.8286 100.654 68.7528 100.724C68.6828 100.794 68.5865 100.829 68.464 100.829ZM68.1315 102.404C68.1315 102.106 68.0906 101.887 68.0089 101.747C67.9273 101.602 67.7639 101.529 67.5189 101.529H67.3439V101.354H68.1315C68.3473 101.354 68.5078 101.383 68.6128 101.441C68.7236 101.494 68.8024 101.593 68.849 101.739C68.8957 101.884 68.9191 102.106 68.9191 102.404V105.467H68.1315V102.404ZM70.285 102.404C70.285 102.106 70.2442 101.887 70.1625 101.747C70.0809 101.602 69.9175 101.529 69.6725 101.529H69.4974V101.354H70.285C70.5009 101.354 70.6643 101.383 70.7751 101.441C70.8918 101.499 70.9764 101.587 71.0289 101.704H71.0726C71.1952 101.581 71.3527 101.479 71.5452 101.397C71.7436 101.31 71.9653 101.266 72.2103 101.266C72.6478 101.266 73.0037 101.383 73.2779 101.616C73.558 101.849 73.698 102.258 73.698 102.841V105.467H72.9104V102.841C72.9104 102.433 72.817 102.135 72.6303 101.949C72.4495 101.756 72.222 101.66 71.9478 101.66C71.6385 101.66 71.3468 101.814 71.0726 102.124V105.467H70.285V102.404ZM78.7906 105.554C78.3706 105.554 78.0147 105.461 77.723 105.274C77.4371 105.082 77.2213 104.825 77.0754 104.504C76.9354 104.177 76.8654 103.813 76.8654 103.41C76.8654 103.008 76.9354 102.646 77.0754 102.325C77.2213 101.998 77.4371 101.742 77.723 101.555C78.0147 101.362 78.3706 101.266 78.7906 101.266C79.4324 101.266 79.8554 101.368 80.0595 101.572C80.1587 101.672 80.22 101.794 80.2433 101.94C80.2667 102.08 80.2783 102.337 80.2783 102.71H80.1033C80.08 102.348 79.9662 102.077 79.762 101.896C79.5578 101.709 79.2924 101.616 78.9657 101.616C78.5456 101.616 78.2277 101.782 78.0118 102.115C77.8018 102.447 77.6967 102.879 77.6967 103.41C77.6967 103.941 77.8018 104.373 78.0118 104.705C78.2277 105.038 78.5456 105.204 78.9657 105.204C79.2632 105.204 79.5082 105.149 79.7008 105.038C79.8933 104.921 80.0712 104.743 80.2346 104.504L80.4096 104.635C80.2171 104.962 79.9895 105.198 79.727 105.344C79.4645 105.484 79.1524 105.554 78.7906 105.554ZM81.3669 100.741C81.3669 100.443 81.3261 100.225 81.2444 100.085C81.1628 99.9388 80.9994 99.8659 80.7544 99.8659H80.5794V99.6909H81.3669C81.5828 99.6909 81.7432 99.7201 81.8483 99.7784C81.9591 99.8309 82.0379 99.9301 82.0845 100.076C82.1312 100.222 82.1545 100.443 82.1545 100.741V105.467H81.3669V100.741ZM85.1403 105.554C84.7436 105.554 84.3994 105.461 84.1077 105.274C83.816 105.082 83.5943 104.822 83.4426 104.495C83.2909 104.169 83.2151 103.807 83.2151 103.41C83.2151 103.013 83.2909 102.652 83.4426 102.325C83.5943 101.998 83.816 101.742 84.1077 101.555C84.3994 101.362 84.7436 101.266 85.1403 101.266C85.537 101.266 85.8812 101.362 86.1729 101.555C86.4646 101.742 86.6863 101.998 86.838 102.325C86.9897 102.652 87.0656 103.013 87.0656 103.41C87.0656 103.807 86.9897 104.169 86.838 104.495C86.6863 104.822 86.4646 105.082 86.1729 105.274C85.8812 105.461 85.537 105.554 85.1403 105.554ZM85.1403 105.204C85.3562 105.204 85.5458 105.125 85.7091 104.968C85.8783 104.81 86.0067 104.594 86.0942 104.32C86.1875 104.046 86.2342 103.743 86.2342 103.41C86.2342 103.078 86.1875 102.774 86.0942 102.5C86.0067 102.226 85.8783 102.01 85.7091 101.852C85.5458 101.695 85.3562 101.616 85.1403 101.616C84.9245 101.616 84.7319 101.695 84.5627 101.852C84.3994 102.01 84.271 102.226 84.1777 102.5C84.0902 102.774 84.0464 103.078 84.0464 103.41C84.0464 103.743 84.0902 104.046 84.1777 104.32C84.271 104.594 84.3994 104.81 84.5627 104.968C84.7319 105.125 84.9245 105.204 85.1403 105.204ZM89.5883 105.554C89.1507 105.554 88.7919 105.437 88.5119 105.204C88.2377 104.971 88.1006 104.562 88.1006 103.979V102.404C88.1006 102.106 88.0597 101.887 87.9781 101.747C87.8964 101.602 87.733 101.529 87.488 101.529H87.4005V101.354H88.1006C88.3164 101.354 88.4769 101.383 88.5819 101.441C88.6927 101.494 88.7715 101.593 88.8182 101.739C88.8648 101.884 88.8882 102.106 88.8882 102.404V103.979C88.8882 104.387 88.9786 104.688 89.1595 104.88C89.3462 105.067 89.5766 105.16 89.8508 105.16C90.16 105.16 90.4517 105.006 90.7259 104.697V101.354H91.5135V105.467H91.076L90.7697 105.117H90.7259C90.6034 105.239 90.443 105.344 90.2446 105.432C90.0521 105.513 89.8333 105.554 89.5883 105.554ZM94.1315 105.554C93.6239 105.554 93.233 105.353 92.9588 104.95C92.6904 104.548 92.5563 104.034 92.5563 103.41C92.5563 102.786 92.6963 102.272 92.9763 101.87C93.2622 101.467 93.6764 101.266 94.219 101.266C94.4407 101.266 94.6361 101.289 94.8053 101.336C94.9745 101.383 95.1437 101.447 95.3129 101.529V100.741C95.3129 100.443 95.272 100.225 95.1903 100.085C95.1087 99.9388 94.9453 99.8659 94.7003 99.8659H94.5253V99.6909H95.3129C95.5287 99.6909 95.6892 99.7201 95.7942 99.7784C95.905 99.8309 95.9838 99.9301 96.0304 100.076C96.0771 100.222 96.1005 100.443 96.1005 100.741V105.467H95.6629L95.3566 105.073H95.3129C95.1845 105.219 95.0328 105.335 94.8578 105.423C94.6886 105.51 94.4465 105.554 94.1315 105.554ZM94.394 105.204C94.6332 105.204 94.814 105.16 94.9366 105.073C95.0591 104.985 95.1845 104.854 95.3129 104.679V101.879C95.1378 101.797 94.9861 101.733 94.8578 101.686C94.7295 101.639 94.604 101.616 94.4815 101.616C94.1081 101.616 93.831 101.779 93.6501 102.106C93.4751 102.433 93.3876 102.868 93.3876 103.41C93.3876 103.947 93.4722 104.381 93.6414 104.714C93.8106 105.041 94.0614 105.204 94.394 105.204Z"
        fill="#404040"
      />
      <defs>
        <clipPath id="clip0_1_150">
          <rect
            width="16.2694"
            height="16.2694"
            fill="white"
            transform="translate(32.9635 68.5473) rotate(-45)"
          />
        </clipPath>
      </defs>
    </svg>